<svg xmlns="http://www.w3.org/2000/svg" width="640" height="400"><rect width="640" height="400" fill="#020503"/><g opacity=".16"><path d="M0 0H640" stroke="#9cff70"/><path d="M0 5H640" stroke="#9cff70"/><path d="M0 10H640" stroke="#9cff70"/><path d="M0 15H640" stroke="#9cff70"/><path d="M0 20H640" stroke="#9cff70"/><path d="M0 25H640" stroke="#9cff70"/><path d="M0 30H640" stroke="#9cff70"/><path d="M0 35H640" stroke="#9cff70"/><path d="M0 40H640" stroke="#9cff70"/><path d="M0 45H640" stroke="#9cff70"/><path d="M0 50H640" stroke="#9cff70"/><path d="M0 55H640" stroke="#9cff70"/><path d="M0 60H640" stroke="#9cff70"/><path d="M0 65H640" stroke="#9cff70"/><path d="M0 70H640" stroke="#9cff70"/><path d="M0 75H640" stroke="#9cff70"/><path d="M0 80H640" stroke="#9cff70"/><path d="M0 85H640" stroke="#9cff70"/><path d="M0 90H640" stroke="#9cff70"/><path d="M0 95H640" stroke="#9cff70"/><path d="M0 100H640" stroke="#9cff70"/><path d="M0 105H640" stroke="#9cff70"/><path d="M0 110H640" stroke="#9cff70"/><path d="M0 115H640" stroke="#9cff70"/><path d="M0 120H640" stroke="#9cff70"/><path d="M0 125H640" stroke="#9cff70"/><path d="M0 130H640" stroke="#9cff70"/><path d="M0 135H640" stroke="#9cff70"/><path d="M0 140H640" stroke="#9cff70"/><path d="M0 145H640" stroke="#9cff70"/><path d="M0 150H640" stroke="#9cff70"/><path d="M0 155H640" stroke="#9cff70"/><path d="M0 160H640" stroke="#9cff70"/><path d="M0 165H640" stroke="#9cff70"/><path d="M0 170H640" stroke="#9cff70"/><path d="M0 175H640" stroke="#9cff70"/><path d="M0 180H640" stroke="#9cff70"/><path d="M0 185H640" stroke="#9cff70"/><path d="M0 190H640" stroke="#9cff70"/><path d="M0 195H640" stroke="#9cff70"/><path d="M0 200H640" stroke="#9cff70"/><path d="M0 205H640" stroke="#9cff70"/><path d="M0 210H640" stroke="#9cff70"/><path d="M0 215H640" stroke="#9cff70"/><path d="M0 220H640" stroke="#9cff70"/><path d="M0 225H640" stroke="#9cff70"/><path d="M0 230H640" stroke="#9cff70"/><path d="M0 235H640" stroke="#9cff70"/><path d="M0 240H640" stroke="#9cff70"/><path d="M0 245H640" stroke="#9cff70"/><path d="M0 250H640" stroke="#9cff70"/><path d="M0 255H640" stroke="#9cff70"/><path d="M0 260H640" stroke="#9cff70"/><path d="M0 265H640" stroke="#9cff70"/><path d="M0 270H640" stroke="#9cff70"/><path d="M0 275H640" stroke="#9cff70"/><path d="M0 280H640" stroke="#9cff70"/><path d="M0 285H640" stroke="#9cff70"/><path d="M0 290H640" stroke="#9cff70"/><path d="M0 295H640" stroke="#9cff70"/><path d="M0 300H640" stroke="#9cff70"/><path d="M0 305H640" stroke="#9cff70"/><path d="M0 310H640" stroke="#9cff70"/><path d="M0 315H640" stroke="#9cff70"/><path d="M0 320H640" stroke="#9cff70"/><path d="M0 325H640" stroke="#9cff70"/><path d="M0 330H640" stroke="#9cff70"/><path d="M0 335H640" stroke="#9cff70"/><path d="M0 340H640" stroke="#9cff70"/><path d="M0 345H640" stroke="#9cff70"/><path d="M0 350H640" stroke="#9cff70"/><path d="M0 355H640" stroke="#9cff70"/><path d="M0 360H640" stroke="#9cff70"/><path d="M0 365H640" stroke="#9cff70"/><path d="M0 370H640" stroke="#9cff70"/><path d="M0 375H640" stroke="#9cff70"/><path d="M0 380H640" stroke="#9cff70"/><path d="M0 385H640" stroke="#9cff70"/><path d="M0 390H640" stroke="#9cff70"/><path d="M0 395H640" stroke="#9cff70"/></g><rect x="70" y="90" width="500" height="250" rx="8" fill="#020602" stroke="#9cff70" stroke-width="4"/><path d="M90 130 H550 M90 165 H520 M90 200 H545 M90 235 H490 M90 270 H550" stroke="#285b2c"/><path d="M100 305 H420" stroke="#ffb347" stroke-width="5"/><circle cx="535" cy="305" r="7" fill="#68e8ff"/><text x="35" y="45" fill="#9cff70" font-family="monospace" font-size="24">HCF // ARCHIVE FRAME</text><text x="35" y="375" fill="#ffb347" font-family="monospace" font-size="18">LOADSTAR</text><text x="35" y="395" fill="#68e8ff" font-family="monospace" font-size="13">WEB / CREATION</text></svg>